%
M48
M72
T01C0.01400
T02C0.02756
T03C0.03543
T04C0.03600
T05C0.04000
T06C0.05500
T07C0.06299
T08C0.07087
T09C0.11811
%
T01
X119533Y59833
X128333Y59833
X136333Y59833
X144933Y60133
X156933Y68133
X150533Y70533
X164133Y75333
X160133Y86066
X151333Y101733
X157733Y112933
X163333Y112933
X163333Y117733
X177733Y117733
X177733Y112933
X182533Y112133
X188933Y112933
X188933Y117733
X188933Y121733
X188933Y125733
X197733Y112133
X225733Y115333
X225733Y118533
X228133Y112133
X232133Y112133
X236133Y112133
X238533Y114533
X238533Y118533
X251333Y116133
X265233Y107933
X270833Y103133
X265233Y98333
X262533Y94533
X262833Y89533
X262533Y81733
X269733Y76933
X276033Y81633
X280133Y85733
X284133Y85733
X286533Y88933
X286533Y92933
X296933Y90533
X310833Y88733
X316133Y81933
X348933Y87333
X348933Y90533
X357733Y90533
X362533Y92933
X375333Y91333
X376933Y96133
X380933Y96133
X384933Y96133
X394533Y90533
X394533Y87333
X388133Y74533
X419333Y86736
X412933Y99333
X412933Y102533
X407333Y108133
X404133Y108133
X373733Y102533
X372133Y136933
X403333Y157733
X426557Y148057
X420133Y136133
X437733Y160133
X440933Y160133
X444133Y162533
X447333Y162533
X450533Y162533
X452933Y160133
X428133Y183333
X420133Y180133
X407333Y181733
X389733Y185433
X389733Y189233
X374533Y192933
X372133Y196133
X378533Y215333
X378533Y219333
X384133Y215333
X406533Y200933
X410533Y200933
X430533Y202533
X434533Y207333
X437733Y208933
X440933Y208933
X443333Y206533
X446533Y206533
X449733Y206533
X452933Y206533
X447333Y212933
X442033Y216333
X436033Y217933
X424833Y217933
X423333Y232133
X432933Y236133
X449433Y236233
X453233Y243133
X452933Y259333
X453233Y275933
X448433Y280733
X442833Y275933
X435633Y275933
X429233Y281533
X423633Y275933
X432133Y260133
X420933Y251333
X398533Y258533
X398533Y268133
X398533Y279333
X379333Y272933
X373733Y272933
X369733Y272933
X365733Y272933
X351333Y274186
X348133Y269733
X348133Y265733
X348133Y261733
X348133Y258533
X348133Y253733
X348133Y249733
X348133Y246533
X348133Y242533
X348133Y237733
X350533Y234533
X347333Y232133
X343333Y233733
X343333Y236933
X343333Y240133
X343333Y243333
X343333Y246533
X343333Y249733
X342533Y252133
X340133Y253733
X340133Y256933
X340133Y260133
X340133Y263333
X340133Y266533
X340133Y269733
X338533Y272933
X335333Y272933
X332133Y272933
X328933Y272933
X325733Y272933
X322533Y272933
X319333Y272933
X316133Y272933
X312933Y272933
X309733Y272933
X306533Y272133
X306533Y268933
X306533Y265733
X306533Y262533
X306533Y259333
X306533Y256133
X306533Y252933
X306533Y249733
X306533Y246533
X306533Y243333
X306533Y240133
X306533Y236933
X306533Y233733
X306533Y230533
X306533Y227333
X306533Y224133
X306533Y220933
X306533Y217733
X306533Y214533
X312133Y213733
X315333Y213733
X318533Y213733
X321733Y213733
X324933Y213733
X328133Y213733
X331333Y213733
X334533Y213733
X337733Y213733
X340133Y215833
X340133Y219033
X344933Y218533
X348933Y218533
X352933Y218533
X356933Y218533
X369733Y243333
X368133Y246533
X371333Y246533
X382533Y245733
X382533Y242533
X385733Y245733
X407077Y228133
X434533Y192133
X452933Y216133
X316933Y209733
X313733Y209733
X290533Y196133
X278533Y196133
X273733Y194533
X279333Y189733
X273733Y185733
X267333Y189733
X270533Y172133
X275333Y166533
X275333Y162533
X263333Y162533
X263333Y166533
X252133Y169733
X248133Y172933
X288133Y149733
X287333Y138533
X278533Y135333
X276133Y140933
X263333Y140133
X263333Y136133
X251333Y136133
X251333Y140133
X208933Y155333
X197433Y156633
X197233Y162833
X204133Y167333
X207333Y175333
X197733Y178533
X200933Y192933
X207333Y192933
X212133Y210533
X211833Y217433
X200133Y212133
X181333Y197515
X178333Y194533
X174433Y194033
X171333Y196933
X168924Y202542
X165733Y205242
X167775Y208575
X167333Y212933
X162533Y212933
X156133Y211833
X151333Y220133
X146533Y231333
X139333Y232933
X144133Y237733
X144933Y242533
X139333Y248933
X133733Y248933
X128133Y251333
X124933Y246533
X119333Y240933
X124933Y235333
X113733Y227333
X113533Y215633
X113733Y210533
X107933Y215633
X93533Y215633
X93533Y220433
X93533Y210033
X130533Y186533
X130433Y183333
X118533Y180033
X116833Y168933
X116133Y164133
X120033Y164133
X124033Y161733
X121733Y157733
X130633Y146533
X140933Y140933
X146133Y144133
X146133Y148133
X155333Y148933
X155333Y152933
X155333Y156933
X159233Y157033
X151333Y156933
X145733Y161733
X145733Y166533
X141733Y168133
X137733Y169733
X136933Y174133
X143169Y184338
X153733Y172133
X153733Y168933
X150533Y168933
X164133Y182533
X170133Y183733
X173633Y180933
X178533Y180933
X188133Y152133
X141733Y115333
X121933Y107833
X116133Y111333
X121933Y102233
X121933Y98233
X130533Y93733
X110733Y95833
X119533Y70233
X119533Y65433
X128333Y70233
X136133Y70533
X195333Y86066
X250033Y89533
X250533Y94533
X256133Y95333
X269733Y95333
X275333Y93733
X275633Y89533
X289533Y103233
X291333Y116133
X301733Y126533
X250733Y82033
X256133Y76933
X138533Y155333
X172933Y228533
X162533Y236933
X156733Y258033
X149533Y258033
X145733Y260933
X141733Y258333
X136133Y259133
X131333Y261533
X124133Y255333
X119333Y255333
X119333Y260933
X114533Y260933
X124133Y268733
X117733Y275133
X120033Y280533
X117733Y284733
X176133Y264133
X185733Y269733
X191333Y261733
X196133Y259033
X187333Y251333
X191333Y236133
X228133Y244133
X232133Y244133
X236133Y244133
X238533Y248133
X238533Y252933
X267333Y264933
X278533Y264933
X279333Y260933
X278533Y255333
X279133Y251533
X290333Y251533
X290533Y256133
X290533Y259333
X296933Y258533
X294533Y235333
X288933Y224933
X288933Y220933
X278533Y209733
X275333Y209733
X267333Y209733
X279333Y229733
X313733Y188933
X313733Y184133
X313733Y180133
X313733Y176133
X436133Y105733
T02
X442133Y176656
X442133Y192010
T03
X448933Y122839
X448933Y111028
T04
X412333Y65733
X402333Y65733
T05
X325333Y68133
X315333Y68133
X305333Y68133
X295133Y68133
X285133Y68133
X275133Y68133
X265133Y68133
X254645Y67862
X244645Y67862
X234645Y67862
X224645Y67862
X214645Y67862
X204645Y67862
X194295Y67988
X184295Y67988
X174295Y67988
X164295Y67988
X100133Y90733
X100133Y100733
X100133Y110733
X100133Y120733
X100133Y130733
X100133Y140733
X100133Y150733
X100133Y160733
X100133Y170333
X100133Y180333
X100133Y190333
X100133Y200333
X100133Y210333
X100133Y220333
X100133Y230533
X100133Y240533
X100133Y250533
X100133Y260533
X100133Y270533
X100133Y280933
X123933Y284733
X123933Y274733
X133933Y274733
X143933Y274733
X153933Y274733
X163933Y274733
X163933Y284733
X153933Y284733
X143933Y284733
X133933Y284733
X134333Y300933
X124333Y300933
X144333Y300933
X154333Y300933
X164333Y300933
X174333Y300933
X184333Y300933
X194333Y300933
X203933Y300933
X213933Y300933
X223933Y300933
X233933Y300933
X243933Y300933
X253933Y300933
X263933Y300933
X273933Y300933
X283933Y300933
X293933Y300933
X303933Y300933
X313933Y300933
X324333Y300933
X334333Y300933
X344333Y300933
X354333Y300933
X238733Y236133
X238733Y226133
X228733Y226133
X228733Y236133
X228733Y216133
X228733Y206133
X238733Y206133
X238733Y216133
X238733Y196133
X228733Y196133
X228933Y185933
X228933Y175933
X218933Y175933
X218933Y185933
X238933Y185933
X238933Y175933
X438590Y171341
X438590Y197325
T06
X449613Y198506
X449613Y170160
T07
X436133Y114533
T08
X418417Y114533
T09
X105481Y72681
X105481Y297091
X440127Y297091
X440127Y72681
M30
